<svg xmlns="http://www.w3.org/2000/svg" viewBox="0 0 32 32">
  <defs>
    <linearGradient id="brand-gradient" x1="0%" y1="0%" x2="100%" y2="100%">
      <stop offset="0%" stop-color="#f97316"/>
      <stop offset="100%" stop-color="#ef4444"/>
    </linearGradient>
  </defs>
  <rect width="32" height="32" rx="8" fill="url(#brand-gradient)"/>
  <path d="M16 7c-1.5 0-2.5 1-2.5 2.5V11h-1a2 2 0 0 0-2 2v10a2 2 0 0 0 2 2h7a2 2 0 0 0 2-2V13a2 2 0 0 0-2-2h-1V9.5C18.5 8 17.5 7 16 7zm-1 4h2V9.5c0-.5-.5-1-1-1s-1 .5-1 1V11zm-2.5 3h7a.5.5 0 0 1 .5.5V15h-8v-1.5a.5.5 0 0 1 .5-.5zM11 16.5h8V23a.5.5 0 0 1-.5.5h-7a.5.5 0 0 1-.5-.5v-6.5z" fill="white" opacity="0.95"/>
  <circle cx="15" cy="20" r="1.5" fill="white" opacity="0.7"/>
</svg>
